<?xml version="1.0" standalone="no"?>
<!DOCTYPE svg PUBLIC "-//W3C//DTD SVG 20010904//EN"
 "http://www.w3.org/TR/2001/REC-SVG-20010904/DTD/svg10.dtd">
<svg version="1.0" xmlns="http://www.w3.org/2000/svg"
 width="700.000000pt" height="700.000000pt" viewBox="0 0 700.000000 700.000000"
 preserveAspectRatio="xMidYMid meet">
<metadata>
Created by potrace 1.14, written by Peter Selinger 2001-2017
</metadata>
<g transform="translate(0.000000,700.000000) scale(0.100000,-0.100000)"
fill="#000000" stroke="none">
<path d="M5820 6389 c-340 -50 -637 -264 -793 -574 -104 -207 -132 -492 -71
-715 66 -238 197 -432 394 -580 136 -102 355 -182 536 -195 49 -3 115 -8 146
-10 252 -19 481 -228 544 -496 3 -13 7 -62 8 -109 4 -134 -32 -260 -105 -366
-33 -48 -125 -144 -138 -144 -4 0 -14 15 -23 33 -30 61 -166 232 -254 320
-174 171 -377 300 -602 381 -84 30 -247 72 -312 80 -25 3 -67 9 -95 12 -27 4
-435 8 -905 9 -470 1 -857 3 -860 4 -3 0 -3 29 0 64 4 34 7 514 7 1066 l0
1003 -21 42 c-39 74 -134 103 -209 65 -12 -6 -158 -147 -325 -313 -166 -165
-305 -303 -307 -305 -2 -2 -17 5 -32 15 -128 86 -346 170 -518 200 -102 18
-271 23 -391 11 -178 -16 -416 -97 -572 -194 -29 -18 -55 -33 -57 -33 -3 0
-143 138 -311 306 -176 176 -320 312 -338 319 -35 15 -104 12 -136 -5 -10 -6
-32 -27 -47 -47 l-28 -36 0 -1056 c0 -581 4 -1083 8 -1116 18 -134 68 -323
115 -440 37 -89 133 -270 187 -350 85 -125 228 -286 335 -374 14 -11 30 -25
36 -30 32 -27 161 -115 196 -134 22 -12 56 -31 76 -42 29 -16 37 -26 38 -52 1
-40 -3 -46 -51 -71 -105 -53 -193 -183 -220 -321 -2 -9 -4 -239 -4 -511 l-1
-495 -232 -1 c-194 0 -242 -3 -285 -18 -65 -22 -130 -79 -168 -147 -29 -53
-30 -57 -30 -201 0 -132 2 -149 21 -175 46 -63 23 -61 712 -61 673 0 674 0
753 53 l40 26 24 -30 c14 -16 38 -34 53 -39 18 -6 268 -10 652 -10 684 0 676
-1 760 60 l45 32 280 1 280 0 27 -37 c19 -25 40 -40 65 -47 24 -6 305 -9 733
-9 773 1 826 5 992 64 229 83 432 240 578 449 35 49 75 102 89 116 34 35 57
62 112 134 169 221 281 488 325 780 9 59 12 351 4 405 -4 30 -11 75 -15 100
-3 25 -13 70 -20 100 -8 30 -13 55 -12 55 1 1 37 27 79 59 187 139 325 344
385 575 45 172 38 408 -17 566 -11 33 -22 67 -24 76 -19 76 -140 255 -239 353
-199 195 -423 287 -732 300 -104 5 -126 9 -218 43 -119 44 -208 114 -288 227
-95 134 -131 293 -104 463 23 154 119 305 250 397 115 81 201 111 348 122 98
7 139 28 189 96 31 41 42 119 25 175 -14 45 -60 97 -104 118 -43 21 -146 27
-233 14z"/>
</g>
</svg>
